<svg width="156" height="56" viewBox="0 0 156 56" fill="none" xmlns="http://www.w3.org/2000/svg">
<path d="M7.73438 20.7891V35.6719C7.73438 36.3229 8.07292 36.6615 8.75 36.6875H22.4219C22.9167 36.6615 23.3464 36.4531 23.7109 36.0625C24.0755 35.6458 24.3359 35.1771 24.4922 34.6562C24.6745 34.1094 24.7656 33.5625 24.7656 33.0156C24.7656 32.4948 24.6745 31.974 24.4922 31.4531C24.3359 30.9062 24.0755 30.4375 23.7109 30.0469C23.3464 29.6302 22.9167 29.4219 22.4219 29.4219H12.4219C11.6927 29.4219 11.0677 29.1745 10.5469 28.6797C10.0521 28.1589 9.80469 27.5339 9.80469 26.8047C9.80469 26.0755 10.0651 25.4635 10.5859 24.9688C11.0807 24.4479 11.6927 24.1875 12.4219 24.1875H22.2656C24.0885 24.2135 25.5859 24.7344 26.7578 25.75C27.9557 26.7396 28.8021 27.8724 29.2969 29.1484C29.8177 30.3984 30.0781 31.7005 30.0781 33.0547C30.0781 34.3568 29.8177 35.6458 29.2969 36.9219C28.776 38.1719 27.9297 39.3047 26.7578 40.3203C25.5859 41.3099 23.8542 41.8438 21.5625 41.9219H5.15625C4.42708 41.9219 3.80208 41.6875 3.28125 41.2188C2.76042 40.724 2.48698 40.112 2.46094 39.3828V20.7891C2.46094 20.0599 2.72135 19.4609 3.24219 18.9922C3.78906 18.4974 4.42708 18.25 5.15625 18.25C6.71875 18.3802 7.57812 19.2266 7.73438 20.7891ZM38.9922 18.25C39.6953 18.276 40.2943 18.5365 40.7891 19.0312C41.2839 19.5 41.5443 20.0859 41.5703 20.7891V39.9297C41.4141 41.4922 40.5547 42.3385 38.9922 42.4688C38.263 42.4688 37.625 42.2344 37.0781 41.7656C36.5573 41.2708 36.2969 40.6589 36.2969 39.9297V20.7891C36.3229 20.0599 36.5964 19.4609 37.1172 18.9922C37.638 18.4974 38.263 18.25 38.9922 18.25ZM56.6172 41.9219C54.3255 41.8438 52.5938 41.3099 51.4219 40.3203C50.25 39.3047 49.4036 38.1719 48.8828 36.9219C48.362 35.6458 48.1016 34.3568 48.1016 33.0547C48.1016 31.7005 48.349 30.3984 48.8438 29.1484C49.3646 27.8724 50.2109 26.7396 51.3828 25.75C52.5807 24.7344 54.0911 24.2135 55.9141 24.1875H68.5703C70.3932 24.2135 71.8906 24.7344 73.0625 25.75C74.2604 26.7396 75.1068 27.8724 75.6016 29.1484C76.1224 30.3984 76.3828 31.7005 76.3828 33.0547C76.3828 34.3568 76.1224 35.6458 75.6016 36.9219C75.0807 38.1719 74.2344 39.3047 73.0625 40.3203C71.8906 41.3099 70.1589 41.8438 67.8672 41.9219H56.6172ZM55.7578 29.4219C55.263 29.4219 54.8333 29.6302 54.4688 30.0469C54.1042 30.4375 53.8307 30.9062 53.6484 31.4531C53.4922 31.974 53.4141 32.4948 53.4141 33.0156C53.4141 33.5625 53.4922 34.1094 53.6484 34.6562C53.8307 35.1771 54.1042 35.6458 54.4688 36.0625C54.8333 36.4531 55.263 36.6615 55.7578 36.6875H68.7266C69.2214 36.6615 69.651 36.4531 70.0156 36.0625C70.3802 35.6458 70.6406 35.1771 70.7969 34.6562C70.9792 34.1094 71.0703 33.5625 71.0703 33.0156C71.0703 32.4948 70.9792 31.974 70.7969 31.4531C70.6406 30.9062 70.3802 30.4375 70.0156 30.0469C69.651 29.6302 69.2214 29.4219 68.7266 29.4219H55.7578ZM90.8047 41.9219C88.513 41.8438 86.7812 41.3099 85.6094 40.3203C84.4375 39.3047 83.5911 38.1719 83.0703 36.9219C82.5495 35.6458 82.2891 34.3568 82.2891 33.0547C82.2891 31.7005 82.5365 30.3984 83.0312 29.1484C83.5521 27.8724 84.3984 26.7396 85.5703 25.75C86.7682 24.7344 88.2786 24.2135 90.1016 24.1875H104.945C105.674 24.1875 106.286 24.4479 106.781 24.9688C107.302 25.4635 107.562 26.0755 107.562 26.8047C107.562 27.5339 107.302 28.1589 106.781 28.6797C106.286 29.1745 105.674 29.4219 104.945 29.4219H89.9453C89.4505 29.4219 89.0208 29.6302 88.6562 30.0469C88.2917 30.4375 88.0182 30.9062 87.8359 31.4531C87.6797 31.974 87.6016 32.4948 87.6016 33.0156C87.6016 33.5625 87.6797 34.1094 87.8359 34.6562C88.0182 35.1771 88.2917 35.6458 88.6562 36.0625C89.0208 36.4531 89.4505 36.6615 89.9453 36.6875H104.945C105.674 36.6875 106.286 36.9479 106.781 37.4688C107.302 37.9635 107.562 38.5755 107.562 39.3047C107.562 40.0339 107.302 40.6458 106.781 41.1406C106.286 41.6615 105.674 41.9219 104.945 41.9219H90.8047ZM116.359 18.25C117.062 18.276 117.661 18.5365 118.156 19.0312C118.651 19.5 118.911 20.0859 118.938 20.7891V39.9297C118.781 41.4922 117.922 42.3385 116.359 42.4688C115.63 42.4688 114.992 42.2344 114.445 41.7656C113.924 41.2708 113.664 40.6589 113.664 39.9297V20.7891C113.69 20.0599 113.964 19.4609 114.484 18.9922C115.005 18.4974 115.63 18.25 116.359 18.25ZM121.32 29.1484C122.076 27.9245 123.521 27.026 125.656 26.4531L135.695 23.7578C136.398 23.5495 137.062 23.6146 137.688 23.9531C138.339 24.2656 138.768 24.7734 138.977 25.4766C139.211 26.1536 139.159 26.8177 138.82 27.4688C138.508 28.0938 138 28.5234 137.297 28.7578L126.594 31.5312C125.839 31.8177 125.474 32.3125 125.5 33.0156C125.474 33.7188 125.839 34.2135 126.594 34.5L137.297 37.2734C138 37.5078 138.508 37.9505 138.82 38.6016C139.159 39.2266 139.211 39.8776 138.977 40.5547C138.768 41.2578 138.339 41.7656 137.688 42.0781C137.062 42.4167 136.398 42.4818 135.695 42.2734L125.656 39.5781C123.495 38.9792 122.036 38.0677 121.281 36.8438C120.552 35.6198 120.188 34.3438 120.188 33.0156C120.188 31.6875 120.565 30.3984 121.32 29.1484Z" fill="black"/>
<circle cx="150" cy="34" r="6" fill="black"/>
</svg>
