<svg width="17" height="16" viewBox="0 0 17 16" fill="none" xmlns="http://www.w3.org/2000/svg">
<path d="M9.16667 3.3335C11.0523 3.3335 11.9951 3.3335 12.5809 3.91928C13.1667 4.50507 13.1667 5.44788 13.1667 7.3335C13.1667 9.21911 13.1667 10.1619 12.5809 10.7477C11.9951 11.3335 11.0523 11.3335 9.16667 11.3335H5.83334C3.94772 11.3335 3.00491 11.3335 2.41912 10.7477C1.83334 10.1619 1.83334 9.21911 1.83334 7.3335C1.83334 5.44788 1.83334 4.50507 2.41912 3.91928C3.00491 3.3335 3.94772 3.3335 5.83334 3.3335H6.5" stroke="#B4B4B4" stroke-linecap="round"/>
<path d="M11.1668 13.3335H7.8335C5.94789 13.3335 5.00508 13.3335 4.41929 12.7477C4.09269 12.4211 3.94819 11.9836 3.88425 11.3335M14.5811 12.7477C15.1668 12.162 15.1668 11.2191 15.1668 9.33353C15.1668 7.44791 15.1668 6.5051 14.5811 5.91932C14.2545 5.59273 13.8169 5.44822 13.1668 5.38428" stroke="#B4B4B4" stroke-linecap="round"/>
<path d="M9.16667 7.33366C9.16667 8.25413 8.42048 9.00033 7.5 9.00033C6.57953 9.00033 5.83334 8.25413 5.83334 7.33366C5.83334 6.41318 6.57953 5.66699 7.5 5.66699C8.42048 5.66699 9.16667 6.41318 9.16667 7.33366Z" stroke="#B4B4B4"/>
<path d="M11.1667 8.66699L11.1667 6.00033" stroke="#B4B4B4" stroke-linecap="round"/>
<path d="M3.83334 8.66699L3.83334 6.00033" stroke="#B4B4B4" stroke-linecap="round"/>
</svg>
