<svg width="72" height="72" viewBox="0 0 72 72" fill="none" xmlns="http://www.w3.org/2000/svg">
<path d="M36 17.562V62.9998" stroke="#A2A1A2" stroke-width="1.5"/>
<path d="M15 27L27 30" stroke="#A2A1A2" stroke-width="1.5" stroke-linecap="round"/>
<path d="M57 27L45 30" stroke="#A2A1A2" stroke-width="1.5" stroke-linecap="round"/>
<path d="M15 39L27 42" stroke="#A2A1A2" stroke-width="1.5" stroke-linecap="round"/>
<path d="M57 39L45 42" stroke="#A2A1A2" stroke-width="1.5" stroke-linecap="round"/>
<path d="M60.2459 9.05324L60.272 9.80279H60.272L60.2459 9.05324ZM49.5 10.4623L49.2849 9.74384L49.5 10.4623ZM41.0215 14.4083L40.6458 13.7591L41.0215 14.4083ZM11.9472 9.22467L11.9012 9.97325L11.9472 9.22467ZM21 10.4623L21.1914 9.73715L21 10.4623ZM30.8468 14.6264L30.4962 15.2894L30.8468 14.6264ZM40.8828 60.2077L41.2355 60.8696L40.8828 60.2077ZM51 55.9001L50.8086 55.1749L51 55.9001ZM59.9554 54.6685L60.0022 55.417L59.9554 54.6685ZM31.1173 60.2077L30.7645 60.8696L31.1173 60.2077ZM21 55.9001L21.1914 55.1749L21 55.9001ZM12.0446 54.6685L11.9978 55.417H11.9978L12.0446 54.6685ZM66.75 31.6152C66.75 31.201 66.4142 30.8652 66 30.8652C65.5858 30.8652 65.25 31.201 65.25 31.6152H66.75ZM65.25 21C65.25 21.4142 65.5858 21.75 66 21.75C66.4142 21.75 66.75 21.4142 66.75 21H65.25ZM5.25 31.7121C5.25 32.1263 5.58579 32.4621 6 32.4621C6.41421 32.4621 6.75 32.1263 6.75 31.7121H5.25ZM6.75 42C6.75 41.5858 6.41421 41.25 6 41.25C5.58579 41.25 5.25 41.5858 5.25 42H6.75ZM60.2459 9.05324L60.2198 8.3037C56.8243 8.42197 52.5234 8.77432 49.2849 9.74384L49.5 10.4623L49.7151 11.1808C52.7581 10.2698 56.896 9.92038 60.272 9.80279L60.2459 9.05324ZM49.5 10.4623L49.2849 9.74384C46.4746 10.5852 43.2413 12.257 40.6458 13.7591L41.0215 14.4083L41.3972 15.0574C43.9706 13.5681 47.0796 11.9698 49.7151 11.1808L49.5 10.4623ZM11.9472 9.22467L11.9012 9.97325C14.8199 10.1526 18.2234 10.5053 20.8086 11.1875L21 10.4623L21.1914 9.73715C18.4575 9.01575 14.9327 8.65674 11.9932 8.47608L11.9472 9.22467ZM21 10.4623L20.8086 11.1875C23.8692 11.9951 27.5471 13.73 30.4962 15.2894L30.8468 14.6264L31.1973 13.9634C28.2296 12.3941 24.4261 10.5907 21.1914 9.73715L21 10.4623ZM40.8828 60.2077L41.2355 60.8696C44.2255 59.2757 48.0359 57.4579 51.1914 56.6253L51 55.9001L50.8086 55.1749C47.4754 56.0545 43.5369 57.943 40.53 59.5459L40.8828 60.2077ZM51 55.9001L51.1914 56.6253C53.7478 55.9507 57.1046 55.5982 60.0022 55.417L59.9554 54.6685L59.9086 53.9199C56.9897 54.1025 53.5125 54.4614 50.8086 55.1749L51 55.9001ZM31.1173 60.2077L31.47 59.5459C28.4631 57.943 24.5246 56.0545 21.1914 55.1749L21 55.9001L20.8086 56.6253C23.9641 57.4579 27.7745 59.2757 30.7645 60.8696L31.1173 60.2077ZM21 55.9001L21.1914 55.1749C18.4875 54.4614 15.0103 54.1025 12.0914 53.9199L12.0446 54.6685L11.9978 55.417C14.8954 55.5982 18.2522 55.9507 20.8086 56.6253L21 55.9001ZM66 48.4307H65.25C65.25 51.3385 62.8696 53.7347 59.9086 53.9199L59.9554 54.6685L60.0022 55.417C63.6941 55.1861 66.75 52.1889 66.75 48.4307H66ZM66 14.7996H66.75C66.75 11.1914 63.8922 8.17577 60.2198 8.3037L60.2459 9.05324L60.272 9.80279C63.0304 9.7067 65.25 11.9731 65.25 14.7996H66ZM6 48.4307H5.25C5.25 52.1889 8.30588 55.1861 11.9978 55.417L12.0446 54.6685L12.0914 53.9199C9.1304 53.7347 6.75 51.3385 6.75 48.4307H6ZM40.8828 60.2077L40.53 59.5459C37.7121 61.048 34.2879 61.048 31.47 59.5459L31.1173 60.2077L30.7645 60.8696C34.0233 62.6067 37.9767 62.6067 41.2355 60.8696L40.8828 60.2077ZM41.0215 14.4083L40.6458 13.7591C37.7511 15.4344 34.1472 15.5232 31.1973 13.9634L30.8468 14.6264L30.4962 15.2894C33.9094 17.0942 38.0621 16.9876 41.3972 15.0574L41.0215 14.4083ZM6 14.9934H6.75C6.75 12.0999 9.07503 9.79956 11.9012 9.97325L11.9472 9.22467L11.9932 8.47608C8.24277 8.24558 5.25 11.2979 5.25 14.9934H6ZM66 48.4307H66.75V31.6152H66H65.25V48.4307H66ZM66 21H66.75V14.7996H66H65.25V21H66ZM6 31.7121H6.75V14.9934H6H5.25V31.7121H6ZM6 48.4307H6.75V42H6H5.25V48.4307H6Z" fill="#A2A1A2"/>
</svg>
