<svg width="16" height="16" viewBox="0 0 16 16" fill="none" xmlns="http://www.w3.org/2000/svg">
<path d="M8.00001 6.66663V9.33329M6.84507 7.33329L9.15447 8.66663M9.15431 7.33329L6.84491 8.66663" stroke="#141414" stroke-linecap="round"/>
<path d="M4.4883 6.66663V9.33329M3.33335 7.33329L5.64275 8.66663M5.64259 7.33329L3.33319 8.66663" stroke="#141414" stroke-linecap="round"/>
<path d="M11.5121 6.66663V9.33329M10.3571 7.33329L12.6665 8.66663M12.6664 7.33329L10.357 8.66663" stroke="#141414" stroke-linecap="round"/>
<path d="M14.6666 7.99996C14.6666 10.5141 14.6666 11.7712 13.8856 12.5522C13.1045 13.3333 11.8475 13.3333 9.33331 13.3333H6.66665C4.15249 13.3333 2.89541 13.3333 2.11436 12.5522C1.33331 11.7712 1.33331 10.5141 1.33331 7.99996C1.33331 5.4858 1.33331 4.22872 2.11436 3.44767C2.89541 2.66663 4.15249 2.66663 6.66665 2.66663H9.33331C11.8475 2.66663 13.1045 2.66663 13.8856 3.44767C14.3211 3.88313 14.5137 4.46655 14.599 5.33329" stroke="#141414" stroke-linecap="round"/>
</svg>
