<svg width="25" height="24" viewBox="0 0 25 24" fill="none" xmlns="http://www.w3.org/2000/svg">
<path d="M6 10H12" stroke="white" stroke-width="1.5" stroke-linecap="round"/>
<path d="M7 14H11" stroke="white" stroke-width="1.5" stroke-linecap="round"/>
<path d="M15.5 3L15.5 13M15.5 17L15.5 21" stroke="white" stroke-width="1.5" stroke-linecap="round"/>
<path d="M2.5 11V13C2.5 16.7712 2.5 18.6569 3.67157 19.8284C4.84315 21 6.72876 21 10.5 21H14.5C18.2712 21 20.1569 21 21.3284 19.8284C22.5 18.6569 22.5 16.7712 22.5 13V11C22.5 7.22876 22.5 5.34315 21.3284 4.17157C20.1569 3 18.2712 3 14.5 3H10.5C6.72876 3 4.84315 3 3.67157 4.17157C3.01839 4.82475 2.72937 5.69989 2.60149 7" stroke="white" stroke-width="1.5" stroke-linecap="round"/>
</svg>
